<svg xmlns="http://www.w3.org/2000/svg" width="44" height="44" viewBox="0 0 44 44">
    <g fill="none" fill-rule="evenodd">
        <circle cx="22" cy="22" r="22" fill="#53AEF6"/>
        <path fill="#FFF" fill-rule="nonzero" d="M34.99 14.776c.148-.583-.295-1.021-.885-1.021H23.931c-.442 0-.737.146-.885.583L20.54 23.82c-.885-1.167-2.36-1.896-3.834-1.896-2.654 0-4.719 2.042-4.719 4.668 0 2.626 2.065 4.668 4.719 4.668 2.064 0 3.834-1.313 4.423-3.063-.147.437 3.54-12.837 3.54-12.837h8.552l-1.77 6.564c-.884-1.021-2.064-1.605-3.391-1.605-2.507 0-4.424 2.043-4.424 4.377 0 2.48 2.065 4.376 4.424 4.376 2.212 0 3.981-1.605 4.423-3.647l2.507-10.649zM16.706 29.51c-1.622 0-2.95-1.312-2.95-2.917 0-1.605 1.328-2.918 2.95-2.918s2.949 1.313 2.949 2.918c0 1.605-1.327 2.917-2.95 2.917zm11.354-2.042c-1.475 0-2.654-1.167-2.654-2.626 0-1.458 1.18-2.625 2.654-2.625s2.654 1.167 2.654 2.625c0 1.46-1.18 2.626-2.654 2.626z"/>
    </g>
</svg>
