<?xml version="1.0" encoding="UTF-8"?>
<svg width="55px" height="60px" viewBox="0 0 55 60" version="1.1" xmlns="http://www.w3.org/2000/svg" xmlns:xlink="http://www.w3.org/1999/xlink">
    <!-- Generator: Sketch 42 (36781) - http://www.bohemiancoding.com/sketch -->
    <title>robot</title>
    <desc>Created with Sketch.</desc>
    <defs>
        <polygon id="path-1" points="0.354380656 0.170133333 6.34645719 0.170133333 6.34645719 5.99450078 0.354380656 5.99450078 0.354380656 0.170133333"></polygon>
    </defs>
    <g id="切图" stroke="none" stroke-width="1" fill="none" fill-rule="evenodd">
        <g transform="translate(-92.000000, -1263.000000)" id="Group-46">
            <g transform="translate(92.000000, 1263.000000)">
                <g id="Page-1">
                    <path d="M39.3768726,23.3835067 C39.3829088,23.52724 39.4017716,23.6687733 39.4017716,23.81324 L39.4017716,23.3835067 L39.3768726,23.3835067 Z" id="Fill-1" fill="#F1404B"></path>
                    <path d="M30.8458105,51.2766467 L18.0613271,51.2766467 C19.0097511,53.8433133 21.5087011,55.6766467 24.4535688,55.6766467 C27.3954184,55.6766467 29.896632,53.8433133 30.8458105,51.2766467" id="Fill-3" fill="#FFFFFF"></path>
                    <path d="M20.6783585,55.4918467 C19.4077572,55.4918467 18.3778457,56.4928467 18.3778457,57.72778 C18.3778457,58.96198 19.4077572,59.96298 20.6783585,59.96298 C21.9497144,59.96298 22.9788714,58.96198 22.9788714,57.72778 C22.9788714,56.4928467 21.9497144,55.4918467 20.6783585,55.4918467" id="Fill-5" fill="#FFFFFF"></path>
                    <path d="M26.839719,55.68024 C25.8467787,56.4509733 25.6845582,57.8575067 26.4775523,58.8225733 C27.2697919,59.78764 28.7169495,59.9453067 29.7106443,59.1753067 C30.7028301,58.4045733 30.8650506,56.9973067 30.0720565,56.03224 C29.2798169,55.0679067 27.8319047,54.91024 26.839719,55.68024" id="Fill-7" fill="#FFFFFF"></path>
                    <path d="M9.55146677,24.55332 L9.55146677,32.0743867 C9.55146677,30.73092 9.87439872,29.46372 10.434248,28.3277867 C9.93928691,27.1397867 9.63521781,25.8740533 9.55146677,24.55332" id="Fill-9" fill="#F1404B"></path>
                    <path d="M39.4019225,32.0746067 L39.4019225,23.8136067 C39.4019225,25.38514 39.0721999,26.8848067 38.4965058,28.2818067 C39.0706909,29.4294733 39.4019225,30.7128067 39.4019225,32.0746067" id="Fill-11" fill="#F1404B"></path>
                    <g id="Group-15" transform="translate(0.000000, 10.096607)" fill="#F1404B">
                        <path d="M30.4597257,14.1121933 C29.3747347,14.1121933 28.4949715,13.2571267 28.4949715,12.2025933 C28.4949715,11.1473267 29.3747347,10.29226 30.4597257,10.29226 C31.5447167,10.29226 32.4244799,11.1473267 32.4244799,12.2025933 C32.4244799,13.2571267 31.5447167,14.1121933 30.4597257,14.1121933 M19.0039413,14.1121933 C17.9189503,14.1121933 17.0391872,13.2571267 17.0391872,12.2025933 C17.0391872,11.1473267 17.9189503,10.29226 19.0039413,10.29226 C20.0896868,10.29226 20.96945,11.1473267 20.96945,12.2025933 C20.96945,13.2571267 20.0896868,14.1121933 19.0039413,14.1121933 M52.0131694,16.3723267 C50.7335139,16.2755267 49.6190969,17.1547933 49.4138691,18.3633267 L43.6101483,17.9247933 C43.0744434,16.4991933 41.6793472,15.4761933 40.0277163,15.4761933 C39.7553368,15.4761933 39.4920115,15.5047933 39.2362312,15.5575933 C39.3358271,14.9555267 39.4022243,14.3439267 39.4022243,13.7169267 C39.4022243,13.5717267 39.3826069,13.4309267 39.3765708,13.2871933 C39.1170181,6.23252667 32.5452021,0.580726667 24.4553042,0.580726667 C16.2009222,0.580726667 9.50838403,6.46206 9.50838403,13.7169267 C9.50838403,13.9669933 9.53630104,14.21046 9.55139132,14.45686 C9.56195451,14.62186 9.58609896,14.7831933 9.60269826,14.9467267 C9.35069062,14.8953933 9.09038333,14.86826 8.82328542,14.86826 C6.7091375,14.86826 4.99639097,16.53366 4.99639097,18.58846 C4.99639097,18.8157933 5.02430799,19.0357933 5.06505174,19.2521267 L2.11792049,27.8621933 C1.72632778,27.91426 1.34077118,28.04846 1.00048542,28.2919267 C-0.0912961806,29.0721933 -0.32595,30.56526 0.476852778,31.6263933 C1.27965556,32.6875267 2.81509132,32.91486 3.90762743,32.1345933 C4.99940903,31.3543267 5.23330833,29.8619933 4.43050556,28.80086 C4.2697941,28.5889267 4.07512951,28.42026 3.86537465,28.2757933 L6.24586597,21.3215933 C6.92719201,21.92806 7.82657257,22.3079267 8.82328542,22.3079267 C9.072275,22.3079267 9.31598299,22.2807933 9.55139132,22.23606 L9.55139132,31.4371933 C9.55139132,36.2375933 13.5555965,40.12866 18.4938899,40.12866 L30.4597257,40.12866 C35.3980191,40.12866 39.4022243,36.2375933 39.4022243,31.4371933 L39.4022243,22.85426 C39.6066976,22.88726 39.8126799,22.9151267 40.0277163,22.9151267 C41.9675715,22.9151267 43.5535597,21.5063933 43.8040583,19.6869933 L49.845451,20.14386 C50.2528885,20.68946 50.8859257,21.0707933 51.6328944,21.12726 C52.9842288,21.2299267 54.1642885,20.2479933 54.269166,18.9345933 C54.3740434,17.6219267 53.3637493,16.47426 52.0131694,16.3723267" id="Fill-13"></path>
                    </g>
                    <path d="M20.9560951,22.24442 C20.9560951,23.2989533 20.0763319,24.15402 18.9913409,24.15402 C17.9055955,24.15402 17.0258323,23.2989533 17.0258323,22.24442 C17.0258323,21.1898867 17.9055955,20.33482 18.9913409,20.33482 C20.0763319,20.33482 20.9560951,21.1898867 20.9560951,22.24442" id="Fill-16" fill="#252C41"></path>
                    <path d="M32.4123322,22.24442 C32.4123322,23.2989533 31.532569,24.15402 30.447578,24.15402 C29.3618325,24.15402 28.4820693,23.2989533 28.4820693,22.24442 C28.4820693,21.1898867 29.3618325,20.33482 30.447578,20.33482 C31.532569,20.33482 32.4123322,21.1898867 32.4123322,22.24442" id="Fill-18" fill="#252C41"></path>
                    <g id="Group-22" transform="translate(21.126389, 0.563273)">
                        <mask id="mask-2" fill="white">
                            <use xlink:href="#path-1"></use>
                        </mask>
                        <g id="Clip-21"></g>
                        <path d="M6.31754479,2.6818 C6.54540799,4.2746 5.40156493,5.74493333 3.76276076,5.9664 C2.12320208,6.18786667 0.61115625,5.07613333 0.383293056,3.48333333 C0.155429861,1.8898 1.29927292,0.419466667 2.93807708,0.198 C4.57688125,-0.0227333333 6.0896816,1.089 6.31754479,2.6818" id="Fill-20" fill="#252C41" mask="url(#mask-2)"></path>
                    </g>
                    <path d="M25.8744693,9.76169333 L25.8744693,4.60269333 C25.8744693,3.77329333 25.176544,3.09569333 24.3239433,3.09569333 C23.4705881,3.09569333 22.7741718,3.77329333 22.7741718,4.60269333 L22.7741718,9.77489333 C23.2970499,9.71402667 23.8267186,9.67296 24.3677051,9.67296 C24.8777565,9.67296 25.3795082,9.70742667 25.8744693,9.76169333" id="Fill-23" fill="#252C41"></path>
                    <path d="M17.0391117,36.7034067 C17.0391117,40.8702067 20.5136482,44.2486733 24.8015506,44.2486733 C29.089453,44.2486733 32.564744,40.8702067 32.564744,36.7034067 C32.564744,36.6110067 32.5534263,36.52154 32.5504082,36.4306067 L17.0534475,36.4306067 C17.0496749,36.52154 17.0391117,36.6110067 17.0391117,36.7034067" id="Fill-25" fill="#FFFFFF"></path>
                    <path d="M19.0042431,34.4762 C19.0042431,34.8883333 18.6601848,35.2234667 18.2353935,35.2234667 C17.8106022,35.2234667 17.4665438,34.8883333 17.4665438,34.4762 C17.4665438,34.0640667 17.8106022,33.7289333 18.2353935,33.7289333 C18.6601848,33.7289333 19.0042431,34.0640667 19.0042431,34.4762" id="Fill-27" fill="#FFFFFF"></path>
                    <path d="M20.6783585,35.2231733 C20.2543217,35.2231733 19.9095089,34.8887733 19.9095089,34.4759067 C19.9095089,34.0637733 20.2543217,33.7293733 20.6783585,33.7293733 C21.1023953,33.7293733 21.4472082,34.0637733 21.4472082,34.4759067 C21.4472082,34.8887733 21.1023953,35.2231733 20.6783585,35.2231733" id="Fill-29" fill="#FFFFFF"></path>
                    <path d="M23.3235333,35.2231733 C22.8994965,35.2231733 22.5546837,34.8887733 22.5546837,34.4759067 C22.5546837,34.0637733 22.8994965,33.7293733 23.3235333,33.7293733 C23.7475701,33.7293733 24.092383,34.0637733 24.092383,34.4759067 C24.092383,34.8887733 23.7475701,35.2231733 23.3235333,35.2231733" id="Fill-31" fill="#FFFFFF"></path>
                    <path d="M30.4597257,24.2088 C29.3747347,24.2088 28.4949715,23.3537333 28.4949715,22.2992 C28.4949715,21.2439333 29.3747347,20.3888667 30.4597257,20.3888667 C31.5447167,20.3888667 32.4244799,21.2439333 32.4244799,22.2992 C32.4244799,23.3537333 31.5447167,24.2088 30.4597257,24.2088 M19.0039413,24.2088 C17.9189503,24.2088 17.0391872,23.3537333 17.0391872,22.2992 C17.0391872,21.2439333 17.9189503,20.3888667 19.0039413,20.3888667 C20.0896868,20.3888667 20.96945,21.2439333 20.96945,22.2992 C20.96945,23.3537333 20.0896868,24.2088 19.0039413,24.2088 M35.8514819,24.2212667 C35.8077201,23.9763333 35.7315142,23.7438667 35.6311639,23.5246 C33.9938687,18.8510667 29.6131611,15.4982667 24.44625,15.4982667 L24.4424774,15.4982667 L24.4394594,15.4982667 C19.2733028,15.4982667 14.8925951,18.8510667 13.2545455,23.5246 C13.1541951,23.7438667 13.0787437,23.9763333 13.0349819,24.2212667 C13.0048014,24.3884667 12.9942382,24.8094 12.9957472,24.8482667 C13.0493177,26.2049333 14.0241497,27.3166667 15.3045597,27.5542667 C15.3045597,27.5542667 18.3316694,28.4174 20.31755,27.5748 C22.302676,26.7322 23.5921403,26.84 24.4424774,26.8436667 C25.6979885,26.8495333 26.5822788,26.7322 28.5689139,27.5748 C30.5547944,28.4174 33.5819042,27.5542667 33.5819042,27.5542667 C34.8623142,27.3166667 35.8371462,26.2049333 35.8907167,24.8482667 C35.8922257,24.8094 35.8816625,24.3884667 35.8514819,24.2212667" id="Fill-33" fill="#FFFFFF"></path>
                </g>
            </g>
        </g>
    </g>
</svg>